<svg xmlns="http://www.w3.org/2000/svg" version="1.1" xmlns:xlink="http://www.w3.org/1999/xlink" xmlns:svgjs="http://svgjs.dev/svgjs" width="1500" height="1319" viewBox="0 0 1500 1319"><g transform="matrix(1,0,0,1,-0.732948533961121,-2.1274193548387075)"><svg viewBox="0 0 282 248" data-background-color="#ffffff" preserveAspectRatio="xMidYMid meet" height="1319" width="1500" xmlns="http://www.w3.org/2000/svg" xmlns:xlink="http://www.w3.org/1999/xlink"><g id="tight-bounds" transform="matrix(1,0,0,1,0.13779432438468575,0.4000000000000057)"><svg viewBox="0 0 281.72441135123063 247.2" height="247.2" width="281.72441135123063"><g><svg viewBox="0 0 281.72441135123063 247.2" height="247.2" width="281.72441135123063"><g><svg viewBox="0 0 395.52 347.0503089563839" height="247.2" width="281.72441135123063"><g transform="matrix(1,0,0,1,0,225.40628890176177)"><svg viewBox="0 0 395.52 121.64402005462216" height="121.64402005462216" width="395.52"><g id="textblocktransform"><svg viewBox="0 0 395.52 121.64402005462216" height="121.64402005462216" width="395.52" id="textblock"><g><svg viewBox="0 0 395.52 94.46996466166908" height="94.46996466166908" width="395.52"><g transform="matrix(1,0,0,1,0,0)"><svg width="395.52" viewBox="-2.80014 -31.85556 216.75420000000003 51.77173708946557" height="94.46996466166908" data-palette-color="#fb9614"><path d="M-2.8-18.957l8.45-1.985 3.959 16.851c0.306 1.304 0.564 2.781 0.774 4.431 0.217 1.654-0.022 3.405-0.717 5.253v0c-0.329 0.933-0.862 1.914-1.6 2.944-0.736 1.036-1.525 1.961-2.368 2.775v0l-2.645-2.47c0.743-0.654 1.443-1.452 2.098-2.394 0.654-0.948 1.093-1.893 1.317-2.836v0c0.247-0.989 0.317-2.149 0.209-3.48-0.107-1.331-0.371-2.892-0.792-4.683v0l-2.928-12.461-4.049 0.952zM11.782-22.247l3.484-0.732 0.774 3.689-3.484 0.732zM12.662-13.921l4.12-0.865 4.64 22.098-3.093 0.65-3.99-19.006zM27.213 6.235l-2.973-16.443-1.829-1.966c1.224-1.475 2.663-2.676 4.317-3.606 1.648-0.928 3.353-1.687 5.117-2.276v0l1.077 2.864c-1.54 0.515-2.756 1.017-3.651 1.503-0.901 0.488-1.617 0.949-2.148 1.385v0l3.249 17.968zM53.12-8.306l-12.116 1.741 0.936 6.513c0.835 0.419 1.713 0.646 2.634 0.683 0.915 0.037 1.755 0 2.52-0.11v0c1.425-0.205 2.686-0.548 3.783-1.028 1.097-0.474 2.121-1.153 3.071-2.038v0l0.479 3.336c-0.904 0.736-1.925 1.321-3.061 1.753-1.137 0.433-2.385 0.747-3.744 0.942v0c-2.118 0.304-4.025 0.275-5.721-0.087-1.689-0.363-3.28-1.031-4.773-2.001v0l1.449-2.29-1.164-8.096c-0.09-0.627-0.19-1.37-0.3-2.23-0.104-0.867-0.091-1.782 0.04-2.744 0.13-0.968 0.488-1.899 1.074-2.791v0c0.748-1.124 1.626-1.877 2.635-2.258 1.009-0.381 1.93-0.631 2.762-0.75v0c0.858-0.123 1.825-0.144 2.9-0.064 1.076 0.081 2.118 0.558 3.125 1.43v0c0.807 0.692 1.419 1.483 1.837 2.373 0.41 0.884 0.694 1.756 0.85 2.616 0.156 0.853 0.279 1.593 0.37 2.22v0zM40.576-9.544l8.641-1.242c-0.104-0.726-0.256-1.546-0.454-2.46-0.2-0.921-0.58-1.695-1.142-2.321v0c-0.245-0.301-0.664-0.615-1.257-0.941-0.585-0.32-1.389-0.407-2.411-0.26v0c-0.996 0.143-1.74 0.452-2.231 0.927-0.49 0.481-0.827 0.903-1.01 1.267v0c-0.329 0.755-0.46 1.602-0.392 2.541 0.067 0.933 0.152 1.763 0.256 2.489zM55.048-31.116l4.187-0.443 2.09 19.76c0.193 1.823 0.448 3.351 0.767 4.585 0.311 1.227 0.869 2.285 1.673 3.171 0.799 0.894 2.013 1.724 3.642 2.491v0l-1.371 2.82c-1.931-0.768-3.425-1.709-4.482-2.824-1.064-1.121-1.837-2.477-2.321-4.069-0.491-1.597-0.858-3.543-1.1-5.836v0l-1.758-16.618zM78.78-18.442l-1.526-2.487c1.002-0.651 2.217-1.249 3.645-1.794 1.435-0.539 3.021-0.852 4.76-0.939v0c2.304-0.115 4.177 0.362 5.618 1.432 1.441 1.063 2.516 2.474 3.225 4.235 0.708 1.754 1.112 3.632 1.212 5.636v0c0.1 2.004-0.148 3.919-0.744 5.745-0.597 1.819-1.559 3.332-2.888 4.539-1.328 1.201-3.028 1.853-5.098 1.957v0c-0.739 0.037-1.427 0.021-2.065-0.048-0.638-0.068-1.314-0.185-2.03-0.349v0l0.532 10.677-3.206 0.16zM81.933-19.661l0.796 15.94c0.373 0.115 0.867 0.257 1.483 0.427 0.609 0.17 1.33 0.234 2.162 0.192v0c1.638-0.082 2.904-0.595 3.798-1.541 0.887-0.952 1.49-2.114 1.809-3.484 0.319-1.371 0.445-2.726 0.378-4.064v0c-0.067-1.338-0.31-2.675-0.731-4.009-0.42-1.334-1.112-2.428-2.076-3.28-0.964-0.86-2.298-1.247-4.003-1.162v0c-1.365 0.068-2.57 0.395-3.616 0.981zM103-21.007l0.245-3.16c1.407-0.002 2.81 0.122 4.21 0.373 1.407 0.244 2.698 0.675 3.873 1.293 1.168 0.618 2.106 1.503 2.814 2.656 0.702 1.152 1.054 2.632 1.058 4.438v0l0.016 10.04 1.354 2.298c-1.532 0.876-3.061 1.505-4.586 1.887-1.519 0.389-2.916 0.585-4.19 0.587v0c-1.633 0.003-2.954-0.205-3.961-0.623-1.001-0.412-1.788-0.887-2.362-1.426v0c-0.534-0.566-1.002-1.275-1.404-2.128-0.401-0.853-0.603-1.812-0.604-2.879v0c-0.003-1.673 0.345-3.054 1.043-4.141 0.698-1.088 1.64-1.936 2.825-2.545 1.186-0.602 2.525-1.028 4.018-1.277 1.486-0.256 3.033-0.385 4.64-0.388v0c-0.069-1.107-0.397-1.986-0.985-2.638-0.588-0.646-1.325-1.138-2.212-1.476-0.887-0.332-1.831-0.554-2.832-0.666-1.007-0.118-1.994-0.193-2.96-0.225zM112.008-4.462l-0.014-8.53c-0.807 0.001-1.727 0.053-2.76 0.155-1.04 0.102-2.043 0.313-3.009 0.635-0.973 0.315-1.775 0.81-2.408 1.484-0.632 0.668-0.947 1.572-0.945 2.712v0c0.001 0.767 0.119 1.41 0.353 1.929 0.234 0.52 0.502 0.912 0.802 1.179v0c0.534 0.532 1.145 0.881 1.832 1.047 0.687 0.166 1.364 0.248 2.03 0.246v0c0.807-0.001 1.543-0.086 2.21-0.254 0.673-0.168 1.309-0.369 1.909-0.603zM121.68-31.856l3.559 0.105-0.111 3.768-3.558-0.104zM120.586-23.554l4.209 0.123-0.663 22.571-3.158-0.093 0.569-19.412zM131.111-18.806l-0.989-2.529c0.899-0.476 2.084-0.921 3.554-1.333 1.469-0.406 3.205-0.544 5.208-0.414v0c0.865 0.056 1.784 0.209 2.756 0.459 0.973 0.243 1.894 0.67 2.763 1.281 0.862 0.61 1.539 1.516 2.028 2.717v0c0.2 0.521 0.337 1.134 0.412 1.84 0.075 0.706 0.109 1.624 0.103 2.753-0.006 1.122-0.067 2.584-0.184 4.387v0l-0.658 10.159-3.203-0.208 0.664-10.268c0.143-2.202 0.191-3.882 0.147-5.041-0.045-1.159-0.247-2.067-0.606-2.725v0c-0.269-0.485-0.748-0.977-1.437-1.476-0.689-0.499-1.749-0.795-3.18-0.888v0c-0.805-0.052-1.544-0.033-2.218 0.057-0.681 0.09-1.311 0.232-1.892 0.429v0l-1.248 19.279-3.203-0.207zM152.985-27.502l4.187 0.446-0.638 5.986 4.744 0.505-0.33 3.093-4.743-0.505-0.686 6.443c-0.099 0.928-0.184 1.978-0.255 3.151-0.077 1.165 0.142 2.315 0.658 3.449v0c0.39 0.812 1.03 1.689 1.923 2.628 0.893 0.933 1.742 1.711 2.547 2.333v0l-2.165 2.294c-0.905-0.633-1.805-1.402-2.7-2.309-0.896-0.9-1.614-1.814-2.152-2.743v0c-0.767-1.362-1.188-2.694-1.264-3.997-0.083-1.303-0.056-2.587 0.078-3.853v0l1.456-13.673zM167.18-28.22l3.532 0.451-0.478 3.74-3.531-0.451zM165.283-20.064l4.176 0.533-2.858 22.398-3.135-0.4 2.458-19.264zM175.295-14.313l-0.738-2.613c0.941-0.386 2.164-0.713 3.667-0.981 1.502-0.261 3.243-0.229 5.223 0.095v0c0.855 0.14 1.755 0.382 2.698 0.726 0.945 0.337 1.82 0.852 2.625 1.544 0.799 0.691 1.384 1.659 1.754 2.901v0c0.148 0.538 0.225 1.162 0.231 1.872 0.005 0.71-0.05 1.627-0.166 2.749-0.115 1.116-0.319 2.566-0.611 4.349v0l-1.644 10.046-3.168-0.518 1.662-10.155c0.356-2.178 0.569-3.845 0.637-5.003 0.068-1.158-0.044-2.081-0.337-2.771v0c-0.221-0.509-0.65-1.045-1.287-1.609-0.637-0.564-1.663-0.961-3.078-1.193v0c-0.796-0.13-1.534-0.184-2.213-0.159-0.686 0.023-1.327 0.104-1.924 0.242v0l-3.121 19.066-3.168-0.518zM213.954-9.453l-1.701 2.351-0.888 4.064c-0.521 2.384-1.648 4.14-3.382 5.27-1.734 1.129-3.862 1.419-6.383 0.868v0c-0.228-0.05-0.454-0.109-0.677-0.179-0.225-0.063-0.416-0.128-0.571-0.197v0l-0.664 3.039 2.599 0.568c1.342 0.293 2.602 0.756 3.78 1.388 1.179 0.633 2.068 1.496 2.669 2.59 0.602 1.087 0.721 2.464 0.357 4.131v0l-0.258 1.182 1.223 2.366c-1.639 0.945-3.421 1.542-5.345 1.79-1.917 0.25-3.856 0.161-5.817-0.268v0c-3.758-0.821-6.759-2.609-9.003-5.364v0l2.215-2.127c1.295 1.443 2.481 2.48 3.558 3.111 1.077 0.631 2.367 1.111 3.872 1.44v0c1.27 0.277 2.397 0.367 3.381 0.268 0.976-0.094 1.803-0.272 2.481-0.533v0l0.224-1.026c0.357-1.635 0.29-2.936-0.202-3.903-0.493-0.961-1.752-1.662-3.778-2.105v0l-5.783-1.263 1.466-6.712c-1.056-0.818-1.77-1.864-2.14-3.139-0.368-1.281-0.385-2.691-0.048-4.228v0l0.373-1.709c0.371-1.7 1.069-3.021 2.095-3.965 1.023-0.936 2.261-1.54 3.711-1.809 1.443-0.265 2.966-0.222 4.568 0.128v0c2.123 0.464 3.833 1.103 5.129 1.918 1.289 0.814 2.269 1.499 2.939 2.055zM208.24-3.772l1.061-4.855c-0.497-0.381-1.1-0.742-1.811-1.082-0.716-0.347-1.562-0.628-2.539-0.841v0c-1.537-0.336-2.891-0.212-4.063 0.372-1.172 0.583-1.918 1.611-2.24 3.083v0l-0.373 1.709c-0.307 1.407-0.097 2.599 0.631 3.577 0.727 0.984 1.806 1.633 3.239 1.947v0c1.505 0.329 2.793 0.163 3.865-0.497 1.064-0.655 1.807-1.792 2.23-3.413z" opacity="1" transform="matrix(1,0,0,1,0,0)" fill="#fb9614" class="wordmark-text-0" data-fill-palette-color="primary" id="text-0"></path></svg></g></svg></g><g transform="matrix(1,0,0,1,118.31980799999998,102.37108805950854)"><svg viewBox="0 0 158.88038400000002 19.272931995113613" height="19.272931995113613" width="158.88038400000002"><g transform="matrix(1,0,0,1,0,0)"><svg width="158.88038400000002" viewBox="-0.75 -37.35 409.25 49.650000000000006" height="19.272931995113613" data-palette-color="#fb9614"><path d="M-0.15-30.7L-0.5-30.7Q-0.5-32.95-0.75-35.15L-0.75-35.15Q9.3-35 12.18-35 15.05-35 25.1-35.15L25.1-35.15Q24.75-32.1 24.75-30.7L24.75-30.7 24.4-30.7Q18.85-32.1 14.95-32.2L14.95-32.2Q14.7-29.6 14.7-24.15L14.7-24.15 14.7-10.4Q14.7-3.65 15.45-0.35L15.45-0.35 15.45 0 8.9 0 8.9-0.35Q9.55-3.6 9.55-10.2L9.55-10.2 9.55-23.95Q9.55-29.6 9.3-32.2L9.3-32.2Q5.5-32.1-0.15-30.7L-0.15-30.7ZM33.7-27.25L33.7-27.25 33.7-20.4Q35.6-21.85 36.62-22.55 37.65-23.25 39.27-23.93 40.9-24.6 42.35-24.6L42.35-24.6Q46.05-24.6 48.05-22.3 50.05-20 50.05-15.7L50.05-15.7 50.05-8.5Q50.05-3.75 51.55-0.35L51.55-0.35 51.55 0 44.5 0 44.5-0.35Q45.35-2.85 45.35-7L45.35-7 45.35-14.65Q45.35-17.55 44.47-19.03 43.6-20.5 40.82-20.5 38.05-20.5 33.85-17.95L33.85-17.95 33.85-8.5Q33.85-3.65 35.3-0.35L35.3-0.35 35.3 0 28.3 0 28.3-0.35Q29.15-2.85 29.15-7L29.15-7 29.15-29.35Q29.15-33.35 26.85-35.55L26.85-35.55 26.85-36.15 33.55-37.35 33.85-36.85Q33.7-35.4 33.7-27.25ZM67.65 0.55L67.65 0.55Q62.4 0.55 59.45-2.7 56.5-5.95 56.5-11.28 56.5-16.6 59.8-20.6 63.09-24.6 68-24.6L68-24.6Q76.95-24.6 76.95-13.55L76.95-13.55 75.09-11.75 61.8-11.75Q61.8-7.55 63.59-5.45 65.4-3.35 68.45-3.35L68.45-3.35Q69.65-3.35 71.84-4.08 74.05-4.8 75.75-5.8L75.75-5.8 77-3.9Q76.05-2.95 72.87-1.2 69.7 0.55 67.65 0.55ZM67.09-22.1L67.09-22.1Q65-22.1 63.84-21.15L63.84-21.15Q62.9-19.85 62.34-17.85 61.8-15.85 61.8-14.35L61.8-14.35 72.05-14.75Q72.05-22.1 67.09-22.1ZM106.74-5.3L106.74-10Q104.69-10.75 102.02-10.75 99.34-10.75 98.14-9.9L98.14-9.9Q97.39-8.75 97.39-6.83 97.39-4.9 98.44-3.8 99.49-2.7 101.07-2.7 102.64-2.7 104.29-3.53 105.94-4.35 106.74-5.3L106.74-5.3ZM107.54-2.8L107.54-2.8Q104.49 0.55 100.67 0.55 96.84 0.55 94.67-1.1 92.49-2.75 92.49-6.43 92.49-10.1 95.07-11.7 97.64-13.3 102.34-13.3L102.34-13.3 106.74-13.15 106.74-16Q106.74-18.65 105.44-20.3 104.14-21.95 101.49-21.95L101.49-21.95Q99.54-21.9 95.24-18.2L95.24-18.2Q93.79-20.05 93.19-23L93.19-23Q98.14-24.6 102.29-24.6 106.44-24.6 108.94-22.45 111.44-20.3 111.44-16.35L111.44-16.35 111.44-7.95Q111.49-5.7 112.17-3.78 112.84-1.85 113.94-1.1L113.94-1.1 114.04-0.6 108.69 0.7Q108.04-0.9 107.54-2.8ZM132.34-24.6L132.34-24.6Q133.89-24.6 134.64-24.25L134.64-24.25Q134.64-23.95 134.64-23.65L134.64-23.65Q134.64-20.7 133.74-18.3L133.74-18.3Q131.49-19.75 128.64-19.75L128.64-19.75Q127.09-19.75 125.54-19.2L125.54-19.2 125.54-8.5Q125.54-3.65 126.99-0.35L126.99-0.35 126.99 0 119.99 0 119.99-0.35Q120.84-2.85 120.84-7L120.84-7 120.84-15.5Q120.84-17.65 119.96-19.73 119.09-21.8 117.94-22.5L117.94-22.5 117.89-23.1 123.79-24.65Q124.59-23.3 125.09-21.5L125.09-21.5Q128.09-24.6 132.34-24.6ZM145.79-21.2L145.79-5.6Q145.79-2.95 147.39-2.95L147.39-2.95Q148.74-2.95 151.94-4.55L151.94-4.55 152.99-2.8Q151.39-1.7 148.99-0.58 146.59 0.55 144.59 0.55 142.59 0.55 141.84-0.7 141.09-1.95 141.09-4.3L141.09-4.3 141.09-21.15 136.59-20.9 137.79-24.15Q138.69-24.05 140.99-23.95L140.99-23.95Q140.89-26.45 140.69-28.45L140.69-28.45 145.79-29.75 145.79-24Q148.49-24.1 153.14-24.6L153.14-24.6 151.74-20.7Q149.04-21.1 145.79-21.2L145.79-21.2ZM178.93 0.6Q173.68 0.6 170.63-2.73 167.58-6.05 167.58-11.43 167.58-16.8 171.13-20.7 174.68-24.6 180.06-24.6 185.43-24.6 188.36-21.35 191.28-18.1 191.28-12.65 191.28-7.2 187.73-3.3 184.18 0.6 178.93 0.6ZM185.98-11.4L185.98-11.4Q185.98-16.35 184.43-19.05 182.88-21.75 178.93-21.75L178.93-21.75Q176.38-21.75 174.93-20.65L174.93-20.65Q174.03-19.5 173.46-17.15 172.88-14.8 172.88-12.65L172.88-12.65Q172.88-2.2 180.28-2.2L180.28-2.2Q182.58-2.2 184.03-3.25L184.03-3.25Q184.98-4.4 185.48-6.8 185.98-9.2 185.98-11.4ZM195.48-21.15L196.63-24.2 199.48-24.05 199.48-27.05Q199.48-31.3 201.45-34.15 203.43-37 207.58-37 211.73-37 215.93-35.1L215.93-35.1Q214.63-31.95 213.78-30.7L213.78-30.7Q210.23-33.9 207.28-33.9L207.28-33.9Q206.33-33.9 205.23-33.45L205.23-33.45Q204.18-32.1 204.18-26.9L204.18-26.9 204.18-24Q207.83-24.05 211.43-24.4L211.43-24.4 210.08-20.75Q207.13-21.2 204.18-21.3L204.18-21.3 204.18-9.65Q204.18-7.3 204.63-4.45 205.08-1.6 205.63-0.35L205.63-0.35 205.63 0 198.63 0 198.63-0.35Q199.48-2.85 199.48-8.5L199.48-8.5 199.48-21.3 195.48-21.15ZM238.97-2.65L238.97-2.65Q241.22-2.65 242.27-3.25L242.27-3.25Q243.07-4.2 243.72-7.05 244.37-9.9 244.37-12.55L244.37-12.55Q244.37-20.9 239.32-20.9L239.32-20.9Q236.12-20.9 232.32-18.25L232.32-18.25 232.32-4.75Q235.47-2.65 238.97-2.65ZM227.62 5L227.62 5 227.62-15.7Q227.62-17.9 226.92-19.83 226.22-21.75 225.07-22.45L225.07-22.45 225.02-23.05 231.87-24.65 232.17-24.15Q232.07-23 232.07-20.9L232.07-20.9Q236.22-24.6 240.35-24.6 244.47-24.6 247.1-21.35 249.72-18.1 249.72-13.45L249.72-13.45Q249.72-7.65 246.27-3.53 242.82 0.6 238.42 0.6L238.42 0.6Q235.52 0.6 232.32-0.5L232.32-0.5 232.32 2.9Q232.42 8.9 234.37 11.3L234.37 11.3 234.37 11.55 227.47 12.3Q227.62 10.3 227.62 5ZM268.47-5.3L268.47-10Q266.42-10.75 263.75-10.75 261.07-10.75 259.87-9.9L259.87-9.9Q259.12-8.75 259.12-6.83 259.12-4.9 260.17-3.8 261.22-2.7 262.8-2.7 264.37-2.7 266.02-3.53 267.67-4.35 268.47-5.3L268.47-5.3ZM269.27-2.8L269.27-2.8Q266.22 0.55 262.4 0.55 258.57 0.55 256.4-1.1 254.22-2.75 254.22-6.43 254.22-10.1 256.8-11.7 259.37-13.3 264.07-13.3L264.07-13.3 268.47-13.15 268.47-16Q268.47-18.65 267.17-20.3 265.87-21.95 263.22-21.95L263.22-21.95Q261.27-21.9 256.97-18.2L256.97-18.2Q255.52-20.05 254.92-23L254.92-23Q259.87-24.6 264.02-24.6 268.17-24.6 270.67-22.45 273.17-20.3 273.17-16.35L273.17-16.35 273.17-7.95Q273.22-5.7 273.9-3.78 274.57-1.85 275.67-1.1L275.67-1.1 275.77-0.6 270.42 0.7Q269.77-0.9 269.27-2.8ZM282.02-6.95L282.02-6.95 282.02-16.65Q282.02-21.1 279.52-22.85L279.52-22.85 279.52-23.45 286.57-24.65 286.87-24.15Q286.72-22.7 286.72-20L286.72-20 286.72-8.2Q286.72-3.2 287.97-0.35L287.97-0.35 287.97 0 281.22 0 281.22-0.35Q282.02-2.7 282.02-6.95ZM286.22-35.4L286.22-35.4Q286.92-34.8 286.92-32.5L286.92-32.5Q286.92-31.95 286.87-31.5L286.87-31.5 286.47-31.15Q284.47-30.6 281.72-30.35L281.72-30.35 281.27-30.55Q280.52-31.85 280.52-34L280.52-34Q280.52-34.25 280.52-34.5L280.52-34.5 280.92-34.85Q283.32-35.65 285.52-35.65L285.52-35.65Q285.77-35.65 286.22-35.4ZM308.87-24.6L308.87-24.6Q312.47-24.6 314.44-22.3 316.42-20 316.42-15.7L316.42-15.7 316.42-8.5Q316.42-3.75 317.92-0.35L317.92-0.35 317.92 0 310.87 0 310.87-0.35Q311.72-2.85 311.72-7L311.72-7 311.72-14.65Q311.72-17.55 310.84-19.03 309.97-20.5 307.31-20.5 304.67-20.5 300.52-17.95L300.52-17.95 300.52-8.5Q300.52-3.65 301.97-0.35L301.97-0.35 301.97 0 294.97 0 294.97-0.35Q295.81-2.85 295.81-7L295.81-7 295.81-15.5Q295.81-17.65 294.94-19.73 294.06-21.8 292.92-22.5L292.92-22.5 292.87-23.1 299.42-24.65 299.72-24.15Q300.12-22.3 300.31-20.4L300.31-20.4Q302.17-21.85 303.19-22.55 304.22-23.25 305.81-23.93 307.42-24.6 308.87-24.6ZM330.76-21.2L330.76-5.6Q330.76-2.95 332.36-2.95L332.36-2.95Q333.71-2.95 336.91-4.55L336.91-4.55 337.96-2.8Q336.36-1.7 333.96-0.58 331.56 0.55 329.56 0.55 327.56 0.55 326.81-0.7 326.06-1.95 326.06-4.3L326.06-4.3 326.06-21.15 321.56-20.9 322.76-24.15Q323.66-24.05 325.96-23.95L325.96-23.95Q325.86-26.45 325.66-28.45L325.66-28.45 330.76-29.75 330.76-24Q333.46-24.1 338.11-24.6L338.11-24.6 336.71-20.7Q334.01-21.1 330.76-21.2L330.76-21.2ZM343.96-6.95L343.96-6.95 343.96-16.65Q343.96-21.1 341.46-22.85L341.46-22.85 341.46-23.45 348.51-24.65 348.81-24.15Q348.66-22.7 348.66-20L348.66-20 348.66-8.2Q348.66-3.2 349.91-0.35L349.91-0.35 349.91 0 343.16 0 343.16-0.35Q343.96-2.7 343.96-6.95ZM348.16-35.4L348.16-35.4Q348.86-34.8 348.86-32.5L348.86-32.5Q348.86-31.95 348.81-31.5L348.81-31.5 348.41-31.15Q346.41-30.6 343.66-30.35L343.66-30.35 343.21-30.55Q342.46-31.85 342.46-34L342.46-34Q342.46-34.25 342.46-34.5L342.46-34.5 342.86-34.85Q345.26-35.65 347.46-35.65L347.46-35.65Q347.71-35.65 348.16-35.4ZM370.81-24.6L370.81-24.6Q374.41-24.6 376.38-22.3 378.36-20 378.36-15.7L378.36-15.7 378.36-8.5Q378.36-3.75 379.86-0.35L379.86-0.35 379.86 0 372.81 0 372.81-0.35Q373.66-2.85 373.66-7L373.66-7 373.66-14.65Q373.66-17.55 372.78-19.03 371.91-20.5 369.26-20.5 366.61-20.5 362.46-17.95L362.46-17.95 362.46-8.5Q362.46-3.65 363.91-0.35L363.91-0.35 363.91 0 356.91 0 356.91-0.35Q357.76-2.85 357.76-7L357.76-7 357.76-15.5Q357.76-17.65 356.88-19.73 356.01-21.8 354.86-22.5L354.86-22.5 354.81-23.1 361.36-24.65 361.66-24.15Q362.06-22.3 362.26-20.4L362.26-20.4Q364.11-21.85 365.13-22.55 366.16-23.25 367.76-23.93 369.36-24.6 370.81-24.6ZM392.91-7.85Q391.86-7.3 391.16-6.6 390.46-5.9 390.46-5.48 390.46-5.05 390.66-4.8 390.86-4.55 391.36-4.35 391.86-4.15 392.36-4.03 392.86-3.9 393.73-3.75 394.61-3.6 395.28-3.5 395.96-3.4 397.11-3.23 398.25-3.05 399-2.95L399-2.95Q403.46-2.3 405.46-1.1 407.46 0.1 407.46 2.95L407.46 2.95Q407.46 7 403.71 9.2 399.96 11.4 394.75 11.4L394.75 11.4Q391 11.4 387.91 10.2L387.91 10.2Q386.16 9.5 385.11 8.18 384.06 6.85 384.06 4.95L384.06 4.95Q384.06 1 388.71-0.95L388.71-0.95Q386.21-2 386.21-4.17 386.21-6.35 390.46-8.65L390.46-8.65Q386.06-10.9 386.06-16L386.06-16Q386.06-20 388.71-22.23 391.36-24.45 395.16-24.45 398.96-24.45 401.25-23.15L401.25-23.15Q403.06-23.15 407.16-23.55L407.16-23.55 408.5-20.7 403.96-20.8Q405.25-18.85 405.25-16.2L405.25-16.2Q405.25-12.15 402.61-9.85 399.96-7.55 395.75-7.55L395.75-7.55Q394.25-7.55 392.91-7.85L392.91-7.85ZM390.71-0.05L390.71-0.05Q387.25 1.2 387.25 3.9 387.25 6.6 390 7.93 392.75 9.25 395.96 9.25L395.96 9.25Q399.86 9.25 401.96 7.5L401.96 7.5Q403.21 6.5 403.21 4.95L403.21 4.95Q403.21 3.65 402.06 2.75L402.06 2.75Q401.06 1.95 396.31 1.1L396.31 1.1Q395.31 0.9 393.28 0.48 391.25 0.05 390.71-0.05ZM391.71-12.85L391.71-12.85Q393-10.05 396.06-10.05L396.06-10.05Q398.16-10.05 398.96-10.75L398.96-10.75Q400.36-12.35 400.36-15.68 400.36-19 399.31-20.48 398.25-21.95 395.86-21.95 393.46-21.95 392.31-21.3L392.31-21.3Q390.96-19.45 390.96-16.93 390.96-14.4 391.71-12.85Z" opacity="1" transform="matrix(1,0,0,1,0,0)" fill="#fb9614" class="slogan-text-1" data-fill-palette-color="secondary" id="text-1"></path></svg></g></svg></g></svg></g></svg></g><g transform="matrix(1,0,0,1,132.331383382336,0)"><svg viewBox="0 0 130.85723323532795 196.8200244483786" height="196.8200244483786" width="130.85723323532795"><g><svg xmlns="http://www.w3.org/2000/svg" xmlns:xlink="http://www.w3.org/1999/xlink" version="1.1" x="0" y="0" viewBox="18.965150381149837 4.167 61.720699237700316 92.833" enable-background="new 0 0 100 100" xml:space="preserve" height="196.8200244483786" width="130.85723323532795" class="icon-icon-0" data-fill-palette-color="accent" id="icon-0"><g fill="#fb9614" data-fill-palette-color="accent"><path d="M80.533 49.755A21 21 0 0 1 80.01 47.935 20 20 0 0 1 79.841 47.103L79.828 47.019A8 8 0 0 1 79.801 46.746 12 12 0 0 1 79.8 44.844C79.847 44.572 79.914 44.304 79.988 44.039 80.011 43.957 80.052 43.844 80.093 43.733 80.124 43.679 80.153 43.622 80.188 43.57 80.671 42.85 80.772 41.984 80.587 41.171A3.45 3.45 0 0 0 79.804 39.6 3.32 3.32 0 0 0 77.936 38.487C77.882 38.475 77.829 38.468 77.775 38.459 77.732 38.452 77.685 38.443 77.641 38.438A3 3 0 0 0 77.23 38.41H22.422C20.284 38.41 18.408 40.613 19.118 42.747 19.318 43.347 19.493 43.951 19.64 44.567 19.706 44.842 19.758 45.12 19.808 45.398L19.821 45.481A12 12 0 0 1 19.883 47.086C19.88 47.277 19.865 47.467 19.85 47.658 19.802 47.93 19.736 48.198 19.661 48.463 19.638 48.543 19.598 48.658 19.557 48.769 19.526 48.824 19.497 48.88 19.463 48.932 18.979 49.651 18.88 50.517 19.063 51.33 19.183 51.921 19.461 52.461 19.849 52.905 20.09 53.188 20.374 53.433 20.693 53.62 20.927 53.757 21.169 53.859 21.41 53.934 21.414 53.934 21.417 53.936 21.421 53.937 21.518 53.966 21.615 53.995 21.713 54.014 21.772 54.027 21.831 54.035 21.89 54.044 21.93 54.049 21.969 54.057 22.009 54.062 22.145 54.08 22.282 54.091 22.423 54.091H39.52A59 59 0 0 1 39.62 54.778L39.643 54.966C39.793 56.129 39.914 57.297 40.01 58.465A45 45 0 0 1 40.15 63.903C40.124 64.568 40.072 65.233 39.998 65.895L39.956 66.169C39.901 66.502 39.833 66.835 39.761 67.165A16 16 0 0 1 39.104 69.36L39.084 69.403A15 15 0 0 1 37.774 71.653C37.653 71.827 37.323 72.264 37.201 72.428L36.767 72.972C35.341 74.752 33.93 76.51 33.143 78.676 32.618 80.122 32.464 81.722 32.273 83.236 32.079 84.768 31.981 86.314 31.911 87.856A91 91 0 0 0 31.819 93.57C31.85 95.439 33.353 97 35.245 97H42.412L64.693 96.898C66.653 96.888 67.997 95.341 68.12 93.472 68.253 91.43 68.288 89.377 68.256 87.334A46 46 0 0 0 67.832 81.811C67.632 80.349 67.293 78.909 66.554 77.613 65.576 75.896 64.266 74.388 63.037 72.847L62.983 72.778C62.912 72.681 62.837 72.585 62.765 72.488A17 17 0 0 1 61.323 70.211 16 16 0 0 1 61.012 69.588L60.945 69.439A17.6 17.6 0 0 1 60.095 66.465 21 21 0 0 1 59.955 65.691C59.946 65.641 59.94 65.591 59.932 65.542L59.92 65.441A29 29 0 0 1 59.759 63.222C59.691 61.498 59.761 59.77 59.89 58.05 59.969 56.966 60.086 55.883 60.219 54.804L60.282 54.304 60.314 54.093H77.229C79.367 54.093 81.243 51.889 80.533 49.755M72.949 45.264C72.928 45.924 72.948 46.583 73.006 47.241H26.7C26.723 46.581 26.703 45.92 26.645 45.264zM60.69 81.166L60.703 81.19C60.774 81.4 60.837 81.614 60.891 81.83 60.972 82.141 61.033 82.456 61.09 82.771 61.114 82.905 61.136 83.039 61.155 83.172 61.333 84.681 61.385 86.203 61.406 87.721 61.416 88.499 61.412 89.28 61.399 90.06L42.41 90.146H38.685C38.704 89.32 38.732 88.496 38.769 87.669 38.805 86.892 38.852 86.115 38.913 85.341 38.943 84.954 38.979 84.567 39.017 84.181 39.037 83.987 39.121 83.315 39.14 83.146 39.22 82.626 39.317 82.11 39.435 81.598 39.499 81.313 39.578 81.033 39.664 80.752 39.682 80.694 39.704 80.638 39.724 80.58 40.108 79.828 40.613 79.123 41.114 78.447L41.175 78.369 41.367 78.124C41.629 77.795 41.894 77.469 42.156 77.137 43.593 75.322 44.736 73.565 45.617 71.417 46.631 68.948 46.928 66.171 47.015 63.525 47.118 60.463 46.848 57.385 46.434 54.335 48.763 54.315 51.09 54.293 53.419 54.272 53.027 57.306 52.793 60.366 52.915 63.418 53.025 66.206 53.423 69.086 54.505 71.678 55.43 73.894 56.644 75.734 58.128 77.614 58.379 77.93 58.635 78.245 58.888 78.558L59.265 79.031C59.277 79.044 59.285 79.057 59.295 79.068 59.801 79.74 60.273 80.436 60.69 81.166" fill="#fb9614" data-fill-palette-color="accent"></path><polygon points="78.522,4.167 75.813,4.167 75.813,28.72 74.912,28.72 74.912,4.167 72.881,4.167 72.881,28.72 71.979,28.72    71.979,4.167 69.723,4.167 69.723,28.72 68.822,28.72 68.822,4.167 66.791,4.167 66.791,28.72 65.89,28.72 65.89,4.167    63.634,4.167 63.634,28.72 62.731,28.72 62.731,4.167 60.701,4.167 60.701,28.72 59.8,28.72 59.8,4.167 57.656,4.167 57.656,28.72    56.754,28.72 56.754,4.167 54.724,4.167 54.724,28.72 53.822,28.72 53.822,4.167 51.567,4.167 51.567,28.72 50.665,28.72    50.665,4.167 48.635,4.167 48.635,28.72 47.733,28.72 47.733,4.167 45.929,4.167 45.929,28.72 45.026,28.72 45.026,4.167    42.997,4.167 42.997,28.72 42.094,28.72 42.094,4.167 39.839,4.167 39.839,28.72 38.937,28.72 38.937,4.167 36.907,4.167    36.907,28.72 36.004,28.72 36.004,4.167 33.75,4.167 33.75,28.72 32.847,28.72 32.847,4.167 30.817,4.167 30.817,28.72    29.915,28.72 29.915,4.167 27.659,4.167 27.659,28.72 26.758,28.72 26.758,4.167 24.728,4.167 24.728,28.72 23.825,28.72    23.825,4.167 21.799,4.167 21.799,35.63 78.522,35.63  " fill="#fb9614" data-fill-palette-color="accent"></polygon><circle cx="49.503" cy="81.908" r="3.9" fill="#fb9614" data-fill-palette-color="accent"></circle></g></svg></g></svg></g><g></g></svg></g></svg></g><defs></defs></svg><rect width="281.72441135123063" height="247.2" fill="none" stroke="none" visibility="hidden"></rect></g></svg></g></svg>